<mxfile host="app.diagrams.net" agent="Mozilla/5.0 (Windows NT 10.0; Win64; x64) AppleWebKit/537.36 (KHTML, like Gecko) Chrome/134.0.0.0 Safari/537.36 Edg/134.0.0.0" version="26.1.1">
  <diagram name="第 1 页" id="ajegZhTNEuqw_EFTDSyO">
    <mxGraphModel dx="1213" dy="661" grid="1" gridSize="10" guides="1" tooltips="1" connect="1" arrows="1" fold="1" page="1" pageScale="1" pageWidth="827" pageHeight="1169" math="0" shadow="0">
      <root>
        <mxCell id="0" />
        <mxCell id="1" parent="0" />
        <mxCell id="ITIUs96uMbpRNU-QHT_n-2" value="上传眼底图像和病人信息" style="ellipse;whiteSpace=wrap;html=1;" vertex="1" parent="1">
          <mxGeometry x="240" y="200" width="140" height="50" as="geometry" />
        </mxCell>
        <mxCell id="ITIUs96uMbpRNU-QHT_n-3" value="Doctor" style="shape=umlActor;verticalLabelPosition=bottom;verticalAlign=top;html=1;" vertex="1" parent="1">
          <mxGeometry x="130" y="250" width="30" height="60" as="geometry" />
        </mxCell>
        <mxCell id="ITIUs96uMbpRNU-QHT_n-4" value="患者数据分析与可视化" style="ellipse;whiteSpace=wrap;html=1;" vertex="1" parent="1">
          <mxGeometry x="240" y="270" width="140" height="50" as="geometry" />
        </mxCell>
        <mxCell id="ITIUs96uMbpRNU-QHT_n-6" value="出具患者诊断报告" style="ellipse;whiteSpace=wrap;html=1;" vertex="1" parent="1">
          <mxGeometry x="240" y="330" width="140" height="50" as="geometry" />
        </mxCell>
        <mxCell id="ITIUs96uMbpRNU-QHT_n-7" value="修改批注诊断报告" style="ellipse;whiteSpace=wrap;html=1;" vertex="1" parent="1">
          <mxGeometry x="460" y="330" width="140" height="50" as="geometry" />
        </mxCell>
        <mxCell id="ITIUs96uMbpRNU-QHT_n-10" value="Use" style="endArrow=open;endSize=12;dashed=1;html=1;rounded=0;entryX=0;entryY=0.5;entryDx=0;entryDy=0;" edge="1" parent="1" target="ITIUs96uMbpRNU-QHT_n-2">
          <mxGeometry width="160" relative="1" as="geometry">
            <mxPoint x="160" y="270" as="sourcePoint" />
            <mxPoint x="320" y="270" as="targetPoint" />
          </mxGeometry>
        </mxCell>
        <mxCell id="ITIUs96uMbpRNU-QHT_n-12" value="Use" style="endArrow=open;endSize=12;dashed=1;html=1;rounded=0;entryX=-0.017;entryY=0.64;entryDx=0;entryDy=0;entryPerimeter=0;" edge="1" parent="1" target="ITIUs96uMbpRNU-QHT_n-4">
          <mxGeometry width="160" relative="1" as="geometry">
            <mxPoint x="160" y="270" as="sourcePoint" />
            <mxPoint x="240" y="175" as="targetPoint" />
          </mxGeometry>
        </mxCell>
        <mxCell id="ITIUs96uMbpRNU-QHT_n-14" value="Extends" style="endArrow=block;endSize=16;endFill=0;html=1;rounded=0;exitX=0;exitY=0.5;exitDx=0;exitDy=0;entryX=1;entryY=0.5;entryDx=0;entryDy=0;" edge="1" parent="1" source="ITIUs96uMbpRNU-QHT_n-7" target="ITIUs96uMbpRNU-QHT_n-6">
          <mxGeometry width="160" relative="1" as="geometry">
            <mxPoint x="490" y="320" as="sourcePoint" />
            <mxPoint x="380" y="360" as="targetPoint" />
          </mxGeometry>
        </mxCell>
        <mxCell id="ITIUs96uMbpRNU-QHT_n-15" value="Use" style="endArrow=open;endSize=12;dashed=1;html=1;rounded=0;entryX=0;entryY=0.5;entryDx=0;entryDy=0;" edge="1" parent="1" target="ITIUs96uMbpRNU-QHT_n-6">
          <mxGeometry width="160" relative="1" as="geometry">
            <mxPoint x="160" y="270" as="sourcePoint" />
            <mxPoint x="320" y="270" as="targetPoint" />
          </mxGeometry>
        </mxCell>
        <mxCell id="ITIUs96uMbpRNU-QHT_n-16" value="Preprocess Sys" style="shape=umlActor;verticalLabelPosition=bottom;verticalAlign=top;html=1;" vertex="1" parent="1">
          <mxGeometry x="130" y="490" width="30" height="60" as="geometry" />
        </mxCell>
        <mxCell id="ITIUs96uMbpRNU-QHT_n-17" value="可视化结果导出" style="ellipse;whiteSpace=wrap;html=1;" vertex="1" parent="1">
          <mxGeometry x="460" y="200" width="140" height="50" as="geometry" />
        </mxCell>
        <mxCell id="ITIUs96uMbpRNU-QHT_n-18" value="Extends" style="endArrow=block;endSize=16;endFill=0;html=1;rounded=0;exitX=0;exitY=0.5;exitDx=0;exitDy=0;entryX=1;entryY=0.5;entryDx=0;entryDy=0;" edge="1" parent="1">
          <mxGeometry width="160" relative="1" as="geometry">
            <mxPoint x="460" y="224.5" as="sourcePoint" />
            <mxPoint x="380" y="224.5" as="targetPoint" />
          </mxGeometry>
        </mxCell>
        <mxCell id="ITIUs96uMbpRNU-QHT_n-19" value="图像预处理和可视化" style="ellipse;whiteSpace=wrap;html=1;" vertex="1" parent="1">
          <mxGeometry x="240" y="420" width="140" height="50" as="geometry" />
        </mxCell>
        <mxCell id="ITIUs96uMbpRNU-QHT_n-21" value="诊断历史管理" style="ellipse;whiteSpace=wrap;html=1;" vertex="1" parent="1">
          <mxGeometry x="240" y="480" width="140" height="50" as="geometry" />
        </mxCell>
        <mxCell id="ITIUs96uMbpRNU-QHT_n-22" value="生成智能诊断报告" style="ellipse;whiteSpace=wrap;html=1;" vertex="1" parent="1">
          <mxGeometry x="240" y="560" width="140" height="50" as="geometry" />
        </mxCell>
        <mxCell id="ITIUs96uMbpRNU-QHT_n-23" value="疾病预测" style="ellipse;whiteSpace=wrap;html=1;" vertex="1" parent="1">
          <mxGeometry x="240" y="630" width="140" height="50" as="geometry" />
        </mxCell>
        <mxCell id="ITIUs96uMbpRNU-QHT_n-25" value="Predict Sys" style="shape=umlActor;verticalLabelPosition=bottom;verticalAlign=top;html=1;" vertex="1" parent="1">
          <mxGeometry x="130" y="610" width="30" height="60" as="geometry" />
        </mxCell>
        <mxCell id="ITIUs96uMbpRNU-QHT_n-27" value="Data Sys" style="shape=umlActor;verticalLabelPosition=bottom;verticalAlign=top;html=1;" vertex="1" parent="1">
          <mxGeometry x="130" y="370" width="30" height="60" as="geometry" />
        </mxCell>
        <mxCell id="ITIUs96uMbpRNU-QHT_n-30" value="Use" style="endArrow=open;endSize=12;dashed=1;html=1;rounded=0;entryX=0;entryY=0.5;entryDx=0;entryDy=0;" edge="1" parent="1" target="ITIUs96uMbpRNU-QHT_n-23">
          <mxGeometry width="160" relative="1" as="geometry">
            <mxPoint x="160" y="630" as="sourcePoint" />
            <mxPoint x="240" y="630" as="targetPoint" />
          </mxGeometry>
        </mxCell>
        <mxCell id="ITIUs96uMbpRNU-QHT_n-31" value="Use" style="endArrow=open;endSize=12;dashed=1;html=1;rounded=0;entryX=0;entryY=0.5;entryDx=0;entryDy=0;" edge="1" parent="1" target="ITIUs96uMbpRNU-QHT_n-22">
          <mxGeometry width="160" relative="1" as="geometry">
            <mxPoint x="160" y="630" as="sourcePoint" />
            <mxPoint x="320" y="630" as="targetPoint" />
          </mxGeometry>
        </mxCell>
        <mxCell id="ITIUs96uMbpRNU-QHT_n-32" value="Use" style="endArrow=open;endSize=12;dashed=1;html=1;rounded=0;entryX=0;entryY=0.5;entryDx=0;entryDy=0;" edge="1" parent="1" target="ITIUs96uMbpRNU-QHT_n-19">
          <mxGeometry width="160" relative="1" as="geometry">
            <mxPoint x="150" y="510" as="sourcePoint" />
            <mxPoint x="310" y="510" as="targetPoint" />
          </mxGeometry>
        </mxCell>
        <mxCell id="ITIUs96uMbpRNU-QHT_n-33" value="Use" style="endArrow=open;endSize=12;dashed=1;html=1;rounded=0;entryX=0;entryY=0.5;entryDx=0;entryDy=0;" edge="1" parent="1" target="ITIUs96uMbpRNU-QHT_n-21">
          <mxGeometry width="160" relative="1" as="geometry">
            <mxPoint x="160" y="390" as="sourcePoint" />
            <mxPoint x="320" y="390" as="targetPoint" />
          </mxGeometry>
        </mxCell>
        <mxCell id="ITIUs96uMbpRNU-QHT_n-34" value="Use" style="endArrow=open;endSize=12;dashed=1;html=1;rounded=0;entryX=0;entryY=0.5;entryDx=0;entryDy=0;" edge="1" parent="1" target="ITIUs96uMbpRNU-QHT_n-21">
          <mxGeometry width="160" relative="1" as="geometry">
            <mxPoint x="160" y="270" as="sourcePoint" />
            <mxPoint x="320" y="270" as="targetPoint" />
          </mxGeometry>
        </mxCell>
        <mxCell id="ITIUs96uMbpRNU-QHT_n-35" value="图像透视" style="ellipse;whiteSpace=wrap;html=1;" vertex="1" parent="1">
          <mxGeometry x="460" y="400" width="140" height="50" as="geometry" />
        </mxCell>
        <mxCell id="ITIUs96uMbpRNU-QHT_n-36" value="图像拼接" style="ellipse;whiteSpace=wrap;html=1;" vertex="1" parent="1">
          <mxGeometry x="460" y="470" width="140" height="50" as="geometry" />
        </mxCell>
        <mxCell id="ITIUs96uMbpRNU-QHT_n-37" value="Extends" style="endArrow=block;endSize=16;endFill=0;html=1;rounded=0;exitX=0;exitY=0.5;exitDx=0;exitDy=0;entryX=1;entryY=0.5;entryDx=0;entryDy=0;" edge="1" parent="1" source="ITIUs96uMbpRNU-QHT_n-35" target="ITIUs96uMbpRNU-QHT_n-19">
          <mxGeometry width="160" relative="1" as="geometry">
            <mxPoint x="449" y="420" as="sourcePoint" />
            <mxPoint x="390" y="440" as="targetPoint" />
          </mxGeometry>
        </mxCell>
        <mxCell id="ITIUs96uMbpRNU-QHT_n-38" value="Extends" style="endArrow=block;endSize=16;endFill=0;html=1;rounded=0;exitX=0;exitY=0.5;exitDx=0;exitDy=0;" edge="1" parent="1" source="ITIUs96uMbpRNU-QHT_n-36">
          <mxGeometry width="160" relative="1" as="geometry">
            <mxPoint x="470" y="435" as="sourcePoint" />
            <mxPoint x="380" y="450" as="targetPoint" />
          </mxGeometry>
        </mxCell>
        <mxCell id="ITIUs96uMbpRNU-QHT_n-39" value="报告保存" style="ellipse;whiteSpace=wrap;html=1;" vertex="1" parent="1">
          <mxGeometry x="460" y="540" width="140" height="50" as="geometry" />
        </mxCell>
        <mxCell id="ITIUs96uMbpRNU-QHT_n-40" value="Extends" style="endArrow=block;endSize=16;endFill=0;html=1;rounded=0;entryX=1;entryY=0.5;entryDx=0;entryDy=0;exitX=0;exitY=0.5;exitDx=0;exitDy=0;" edge="1" parent="1" source="ITIUs96uMbpRNU-QHT_n-39" target="ITIUs96uMbpRNU-QHT_n-22">
          <mxGeometry width="160" relative="1" as="geometry">
            <mxPoint x="460" y="585" as="sourcePoint" />
            <mxPoint x="620" y="585" as="targetPoint" />
            <mxPoint as="offset" />
          </mxGeometry>
        </mxCell>
        <mxCell id="ITIUs96uMbpRNU-QHT_n-46" value="单模预测" style="ellipse;whiteSpace=wrap;html=1;" vertex="1" parent="1">
          <mxGeometry x="460" y="680" width="140" height="50" as="geometry" />
        </mxCell>
        <mxCell id="ITIUs96uMbpRNU-QHT_n-47" value="多模预测" style="ellipse;whiteSpace=wrap;html=1;" vertex="1" parent="1">
          <mxGeometry x="460" y="610" width="140" height="50" as="geometry" />
        </mxCell>
        <mxCell id="ITIUs96uMbpRNU-QHT_n-48" value="Extends" style="endArrow=block;endSize=16;endFill=0;html=1;rounded=0;exitX=0;exitY=0.5;exitDx=0;exitDy=0;" edge="1" parent="1" source="ITIUs96uMbpRNU-QHT_n-47">
          <mxGeometry width="160" relative="1" as="geometry">
            <mxPoint x="470" y="570" as="sourcePoint" />
            <mxPoint x="380" y="660" as="targetPoint" />
          </mxGeometry>
        </mxCell>
        <mxCell id="ITIUs96uMbpRNU-QHT_n-49" value="Extends" style="endArrow=block;endSize=16;endFill=0;html=1;rounded=0;exitX=0;exitY=0.5;exitDx=0;exitDy=0;" edge="1" parent="1" source="ITIUs96uMbpRNU-QHT_n-46">
          <mxGeometry width="160" relative="1" as="geometry">
            <mxPoint x="450" y="700" as="sourcePoint" />
            <mxPoint x="380" y="670" as="targetPoint" />
          </mxGeometry>
        </mxCell>
        <mxCell id="ITIUs96uMbpRNU-QHT_n-50" value="自由选择是否带关键字" style="ellipse;whiteSpace=wrap;html=1;" vertex="1" parent="1">
          <mxGeometry x="650" y="650" width="140" height="50" as="geometry" />
        </mxCell>
        <mxCell id="ITIUs96uMbpRNU-QHT_n-51" value="Extends" style="endArrow=block;endSize=16;endFill=0;html=1;rounded=0;exitX=0;exitY=0.5;exitDx=0;exitDy=0;" edge="1" parent="1" source="ITIUs96uMbpRNU-QHT_n-50">
          <mxGeometry width="160" relative="1" as="geometry">
            <mxPoint x="640" y="670" as="sourcePoint" />
            <mxPoint x="600" y="640.5" as="targetPoint" />
          </mxGeometry>
        </mxCell>
        <mxCell id="ITIUs96uMbpRNU-QHT_n-53" value="Extends" style="endArrow=block;endSize=16;endFill=0;html=1;rounded=0;exitX=0;exitY=0.5;exitDx=0;exitDy=0;" edge="1" parent="1" source="ITIUs96uMbpRNU-QHT_n-50">
          <mxGeometry width="160" relative="1" as="geometry">
            <mxPoint x="660" y="680" as="sourcePoint" />
            <mxPoint x="600" y="705.5" as="targetPoint" />
          </mxGeometry>
        </mxCell>
      </root>
    </mxGraphModel>
  </diagram>
</mxfile>
